<svg width="65" height="65" viewBox="0 0 65 65" fill="none" xmlns="http://www.w3.org/2000/svg">
<g clip-path="url(#clip0_636_207)">
<path d="M20.3179 0H27.3V2.91958H23.2375V5.83917H27.3V8.75875H20.3179V0ZM28.6948 0H35.6796V2.54042H31.6171V3.04687H35.6796V8.88604H28.6948V6.22104H32.7573V5.71187H28.6948V0ZM37.0771 0H44.0565V2.54042H39.994V3.04687H44.0565V8.88604H37.0771V6.22104H41.1396V5.71187H37.0771V0Z" fill="#CCC9DC"/>
<path fill-rule="evenodd" clip-rule="evenodd" d="M32.4756 65.0001L13.669 59.7784L8.125 12.7753H56.875L51.3338 59.773L32.4756 65.0001ZM19.0856 34.0519L19.6029 39.8153H39.5823L38.9133 47.2903L32.4838 49.029H32.4783L26.0596 47.2957L25.6479 42.6996H19.8602L20.6673 51.7509L32.4756 55.028L44.3029 51.7509L45.7437 35.5984L45.8846 34.0519L46.9246 22.3817H18.0483L18.5737 28.1478H40.6087L40.0833 34.0519H19.0856Z" fill="#CCC9DC"/>
</g>
<defs>
<clipPath id="clip0_636_207">
<rect width="65" height="65" fill="white"/>
</clipPath>
</defs>
</svg>
