<svg width="65" height="65" viewBox="0 0 65 65" fill="none" xmlns="http://www.w3.org/2000/svg">
<path d="M23.4731 23.4731C21.0787 23.4731 18.7823 22.5219 17.0892 20.8288C15.3961 19.1357 14.4449 16.8393 14.4449 14.4449C14.4449 12.0504 15.3961 9.75406 17.0892 8.06093C18.7823 6.36781 21.0787 5.41663 23.4731 5.41663H32.5V23.4731M23.4731 23.4731H32.5M23.4731 23.4731C21.079 23.4731 18.783 24.4241 17.0902 26.117C15.3973 27.8099 14.4462 30.1059 14.4462 32.5C14.4462 34.894 15.3973 37.1901 17.0902 38.8829C18.783 40.5758 21.079 41.5268 23.4731 41.5268H32.5V23.4731" stroke="#CCC9DC" stroke-width="4.5"/>
<path d="M50.5566 32.4999C50.5566 34.8943 49.6054 37.1907 47.9123 38.8838C46.2191 40.5769 43.9228 41.5281 41.5283 41.5281C39.1339 41.5281 36.8375 40.5769 35.1444 38.8838C33.4513 37.1907 32.5001 34.8943 32.5001 32.4999C32.5001 30.1055 33.4513 27.8091 35.1444 26.116C36.8375 24.4229 39.1339 23.4717 41.5283 23.4717C43.9228 23.4717 46.2191 24.4229 47.9123 26.116C49.6054 27.8091 50.5566 30.1055 50.5566 32.4999ZM23.4732 41.5295H32.5001V50.5564C32.4996 52.3416 31.9697 54.0866 30.9775 55.5707C29.9853 57.0548 28.5753 58.2114 26.9258 58.8942C25.2763 59.577 23.4614 59.7554 21.7105 59.4067C19.9596 59.0581 18.3515 58.1982 17.0893 56.9357C15.8271 55.6731 14.9677 54.0647 14.6196 52.3137C14.2715 50.5627 14.4504 48.7479 15.1337 47.0986C15.817 45.4493 16.974 44.0397 18.4584 43.0479C19.9428 42.0561 21.688 41.5295 23.4732 41.5295Z" stroke="#CCC9DC" stroke-width="4.5"/>
<path d="M32.5 5.41663H41.5269C43.9213 5.41663 46.2177 6.36781 47.9108 8.06093C49.6039 9.75406 50.5551 12.0504 50.5551 14.4449C50.5551 16.8393 49.6039 19.1357 47.9108 20.8288C46.2177 22.5219 43.9213 23.4731 41.5269 23.4731H32.5V5.41663Z" stroke="#CCC9DC" stroke-width="4.5"/>
</svg>
