<svg width="65" height="65" viewBox="0 0 65 65" fill="none" xmlns="http://www.w3.org/2000/svg">
<path fill-rule="evenodd" clip-rule="evenodd" d="M18.7713 18.0066C19.2167 22.6947 19.6585 27.3564 20.1104 32.1227C20.8472 30.8557 21.3804 29.6406 22.1848 28.6452C22.9338 27.718 23.8779 26.8623 24.9052 26.2697C26.2463 25.4958 28.0049 26.2245 28.4395 27.5971C28.5563 27.9653 28.2776 28.4589 28.1801 28.8951C27.852 28.7219 27.429 28.6264 27.2147 28.3614C26.3042 27.2355 25.7558 27.1025 24.7488 28.0755C22.8704 29.8914 21.8141 32.1664 21.4109 34.7232C21.3332 35.2179 21.6425 35.7729 21.773 36.3C22.2864 36.1233 22.8826 36.0583 23.2974 35.7495C24.6462 34.7456 25.482 33.3801 25.9431 31.748C26.0432 31.3945 26.5855 31.1665 26.9247 30.8806C27.0872 31.2148 27.4579 31.6083 27.3802 31.8729C26.6619 34.3306 25.8939 36.7735 25.0768 39.2001C24.9945 39.4459 24.5431 39.5683 24.2623 39.7481C24.149 39.4251 23.9109 39.0869 23.949 38.7827C24.0343 38.0931 24.2562 37.4202 24.4111 36.7885L20.7345 38.4811C20.9402 40.8282 21.1535 43.4612 21.4063 46.0906C21.6003 48.0985 21.9289 48.6185 23.9063 48.9994C26.2138 49.4437 28.5645 49.7276 30.9101 49.9002C34.3644 50.1604 37.8379 49.8335 41.1831 48.9334C42.4384 48.5962 42.9391 47.7705 43.029 46.538C43.1113 45.4031 43.2951 44.2752 43.4226 43.1433C43.6729 40.9135 43.9162 38.6832 44.1721 36.3599C43.3256 36.8962 42.6598 37.4964 41.8813 37.7508C41.3146 37.9362 40.5996 37.665 39.9501 37.597C40.0745 37.0008 40.0669 36.329 40.3544 35.8262C40.8226 35.0046 41.4837 34.2921 42.0626 33.5334L41.8133 33.2333C41.3984 33.4786 40.883 33.6396 40.5879 33.9874C39.9877 34.6953 39.4002 35.453 38.9985 36.2827C38.3261 37.6716 37.8138 39.1377 37.212 40.5616C36.9505 41.1791 36.725 42.1236 35.849 41.7631C34.9121 41.3766 35.5713 40.5514 35.7912 39.9644C36.141 39.028 36.6031 38.1332 36.916 37.4446C36.0293 37.5502 35.1305 37.6777 34.2276 37.7564C33.8457 37.7889 33.3917 37.5797 33.0794 37.7209C32.041 38.1901 31.3828 38.0017 31.167 36.852C30.6861 37.1643 30.2788 37.5873 29.799 37.7011C29.2165 37.8397 28.4263 37.9306 27.9998 37.6396C27.658 37.4065 27.5336 36.5306 27.6504 36.0166C27.8825 34.9949 28.3161 34.0128 28.728 33.0414C28.9829 32.4396 29.2394 31.4788 30.0996 31.8973C30.9497 32.3101 30.1778 33.0068 29.9818 33.5659C29.6776 34.4302 29.3678 35.293 29.0611 36.1563L29.5486 36.4508C30.0127 36.0476 30.5911 35.7191 30.9161 35.2245C31.4483 34.416 31.7698 33.4715 32.2735 32.6417C32.4822 32.2979 32.9317 32.1009 33.2724 31.8373C33.3415 32.2751 33.507 32.725 33.4522 33.1475C33.3978 33.5746 33.0977 33.9651 32.954 34.3876C32.7382 35.0203 32.564 35.6673 32.3446 36.4031C33.3821 36.4427 33.8264 36.006 34.1194 35.2356C35.0467 32.8017 35.9841 30.3703 37.0033 27.9739C37.1775 27.5636 37.7696 27.332 38.1692 27.0172C38.2154 27.5118 38.4358 28.0724 38.2789 28.4893C37.4436 30.6978 36.5056 32.8667 35.6241 35.0579C35.4753 35.4271 35.4276 35.8369 35.3336 36.2279C36.887 35.5297 38.1835 34.7578 38.6567 33.1069C38.7725 32.7057 39.2468 32.4076 39.5561 32.0618L40.2751 32.8235C40.4935 32.6397 40.6936 32.4305 40.9307 32.2776C41.6772 31.7967 42.4811 31.3727 43.2682 32.1177C44.0827 32.888 43.4662 33.6386 43.0407 34.3048C42.5776 35.0315 42.0103 35.6911 41.4883 36.3797C42.6624 35.6231 44.2655 35.2839 44.4788 33.6487C44.9988 29.6548 45.4558 25.6527 45.9195 21.6516C46.0571 20.4674 46.1307 19.2756 46.2379 18.0416C36.9906 20.2805 27.9419 20.2943 18.7713 18.0066ZM22.7404 49.1705C23.1857 50.3471 23.8621 51.5029 24.0394 52.7308C24.4136 55.3445 24.5086 57.9978 24.7736 60.6293C24.8122 61.0127 25.0606 61.5393 25.3703 61.7079C29.9305 64.186 34.5348 64.6156 39.1874 61.9054C39.8816 61.5012 40.0101 60.9675 40.0999 60.217C40.5351 56.5704 39.5662 52.7024 41.8976 49.2685C35.3692 50.8879 28.9976 50.9382 22.7404 49.1705ZM38.478 18.6611C40.6931 18.4473 42.8812 17.9273 45.0719 17.4977C45.4848 17.417 45.8514 17.1027 46.2394 16.896C45.728 16.4466 45.2857 16.2302 44.8236 16.1759C42.5232 15.9042 40.2147 15.695 37.9158 15.4101C37.5685 15.367 36.9485 14.9384 36.9743 14.8602C37.6452 12.8391 37.6122 10.5514 39.1346 8.84816C41.0587 6.69504 43.0026 4.5607 44.9318 2.42535C43.4967 0.881598 43.4774 0.879567 42.1769 2.23086C41.4416 2.99461 40.7697 3.83047 39.972 4.52211C37.0201 7.08047 34.9467 10.1106 34.5424 14.1055C34.4495 15.0221 33.9463 15.3532 32.984 15.3675C29.8071 15.4137 26.6267 15.501 23.4569 15.7097C21.8862 15.8128 20.3349 16.216 18.7744 16.4831L18.7601 17.0666C19.7367 17.3677 20.6944 17.7633 21.6917 17.9548C27.2492 19.0202 32.859 19.203 38.478 18.6611ZM36.7027 17.2657C35.4448 18.2813 34.4053 18.2813 33.4014 17.2657H36.7027Z" fill="#CCC9DC"/>
</svg>
