<svg width="50" height="71" viewBox="0 0 50 71" fill="none" xmlns="http://www.w3.org/2000/svg">
<g clip-path="url(#clip0_636_201)">
<path d="M49.9131 13.918L45.3738 65.1245L24.9695 70.8206L4.62149 65.1324L0.0869141 13.918H49.9131Z" fill="#CCC9DC"/>
<path d="M25 66.4666L41.4877 61.8638L45.3666 18.1053H25V66.4666Z" fill="#CCC9DC"/>
<path d="M16.1758 30.6681H25V24.3868H9.35879L9.50801 26.072L11.0412 43.3814H25V37.1002H16.7459L16.1758 30.6681ZM17.5816 46.5221H11.3199L12.1937 56.3846L24.9713 59.9563L25 59.9484V53.4132L24.9727 53.4205L18.0258 51.5317L17.5816 46.5221Z" fill="#475A6E"/>
<path d="M4.72266 0H7.89258V3.1537H10.7924V0H13.9625V9.55019H10.7926V6.35224H7.89277V9.55019H4.72285L4.72266 0ZM18.1309 3.16707H15.3406V0H24.0934V3.16707H21.3014V9.55019H18.1314V3.16707H18.1309ZM25.4824 0H28.7877L30.8209 3.35568L32.8521 0H36.1588V9.55019H33.0018V4.81659L30.8209 8.2122H30.7662L28.584 4.81659V9.55019H25.4824V0ZM37.7363 0H40.9072V6.39354H45.365V9.55019H37.7361L37.7363 0Z" fill="#CCC9DC"/>
<path d="M24.9785 43.3814H32.6596L31.9354 51.5277L24.9783 53.4186V59.9533L37.766 56.3846L37.8598 55.3234L39.3258 38.7869L39.4779 37.1002H24.9785V43.3814ZM24.9785 30.6527V30.6681H40.0455L40.1705 29.2563L40.4549 26.072L40.6039 24.3868H24.9785V30.6527Z" fill="#475A6E"/>
</g>
<defs>
<clipPath id="clip0_636_201">
<rect width="50" height="71" fill="white"/>
</clipPath>
</defs>
</svg>
