<svg width="65" height="65" viewBox="0 0 65 65" fill="none" xmlns="http://www.w3.org/2000/svg">
<path d="M59.3938 12.759C59.3948 10.9604 58.7139 9.22837 57.4882 7.91205C56.2626 6.59573 54.5835 5.79309 52.7894 5.66598C50.9953 5.53886 49.2198 6.09672 47.8208 7.22707C46.4218 8.35742 45.5034 9.97618 45.2508 11.7569L45.1804 11.7163C39.3683 9.09735 34.4717 13.7394 34.4717 13.7394L21.5231 26.753L26.6419 31.6794L37.0636 21.4392C41.9304 16.5723 44.5792 19.8684 44.5792 19.8684C48.2436 22.9613 44.7065 26.6257 44.7065 26.6257L49.9498 31.6794C54.229 27.0536 54.4781 23.0182 53.1754 19.8088C54.8921 19.5919 56.4707 18.756 57.615 17.4581C58.7594 16.1602 59.3936 14.4894 59.3938 12.759Z" fill="#CCC9DC"/>
<path d="M53.2431 45.4431L53.281 45.3699C55.9027 39.5578 51.2606 34.6639 51.2606 34.6639L38.2471 21.7126L33.3179 26.8314L43.5581 37.2531C48.425 42.1199 45.1317 44.7714 45.1317 44.7714C42.036 48.4358 38.3717 44.896 38.3717 44.896L33.3206 50.1393C37.9438 54.4185 41.9792 54.6703 45.1885 53.3676C45.3543 54.682 45.8842 55.9239 46.7183 56.9532C47.5525 57.9824 48.6577 58.7579 49.9093 59.1923C51.1609 59.6267 52.509 59.7025 53.8014 59.4113C55.0938 59.1202 56.2791 58.4735 57.2235 57.5444C58.1679 56.6152 58.8337 55.4406 59.1459 54.1531C59.4581 52.8656 59.4042 51.5165 58.9902 50.258C58.5763 48.9995 57.8188 47.8818 56.8033 47.031C55.7878 46.1802 54.5547 45.6302 53.2431 45.4431Z" fill="#CCC9DC"/>
<path d="M38.3581 33.3207L27.9337 43.5582C23.0669 48.4278 20.4181 45.1344 20.4181 45.1344C16.7537 42.0388 20.2908 38.3744 20.2908 38.3744L15.0475 33.3207C10.7683 37.9438 10.5192 41.9819 11.8192 45.1913C10.505 45.3576 9.26338 45.8878 8.23454 46.7222C7.2057 47.5567 6.43056 48.662 5.99659 49.9136C5.56262 51.1652 5.48711 52.5132 5.77856 53.8054C6.07002 55.0976 6.71685 56.2826 7.64605 57.2268C8.57525 58.1709 9.74983 58.8365 11.0372 59.1485C12.3247 59.4605 13.6737 59.4065 14.932 58.9925C16.1903 58.5785 17.3079 57.8211 18.1586 56.8057C19.0093 55.7902 19.5593 54.5573 19.7465 53.2459L19.8169 53.2838C25.629 55.9055 30.5256 51.2607 30.5256 51.2607L43.4714 38.2471L38.3581 33.3207Z" fill="#CCC9DC"/>
<path d="M21.4365 27.7469C16.5696 22.88 19.8656 20.2285 19.8656 20.2285C22.9585 16.5642 26.6229 20.1039 26.6229 20.1039L31.6767 14.8606C27.0562 10.5814 23.0208 10.3296 19.806 11.6323C19.6408 10.3175 19.1113 9.07516 18.2774 8.04545C17.4434 7.01574 16.3381 6.2397 15.0864 5.80497C13.8346 5.37024 12.4863 5.29413 11.1936 5.58524C9.90085 5.87634 8.71527 6.52307 7.7707 7.45239C6.82614 8.38171 6.1602 9.5566 5.84809 10.8444C5.53599 12.1322 5.59014 13.4816 6.00444 14.7403C6.41874 15.9989 7.17669 17.1167 8.19269 17.9673C9.20869 18.8179 10.4423 19.3676 11.7542 19.5542L11.7162 19.6273C9.09458 25.4394 13.7367 30.3333 13.7367 30.3333L26.7502 43.2819L31.6794 38.1658L21.4365 27.7469Z" fill="#CCC9DC"/>
</svg>
