<svg width="65" height="65" viewBox="0 0 65 65" fill="none" xmlns="http://www.w3.org/2000/svg">
<path d="M4.0625 4.0625V60.9375H60.9375V4.0625H4.0625ZM35.0147 48.4189C35.0147 53.9541 31.7647 56.4809 27.0298 56.4809C22.752 56.4809 20.2759 54.273 19.0064 51.5938L23.3614 48.9653C24.2003 50.4502 24.962 51.7075 26.8023 51.7075C28.5533 51.7075 29.6705 51.0209 29.6705 48.3438V30.1763H35.0147V48.4189ZM47.6572 56.4809C42.6928 56.4809 39.4814 54.1206 37.9194 51.0209L42.2744 48.5083C43.418 50.375 44.915 51.7583 47.5434 51.7583C49.7514 51.7583 51.1753 50.6533 51.1753 49.1177C51.1753 47.2895 49.727 46.6416 47.2773 45.563L45.9448 44.9922C42.0855 43.355 39.5342 41.2852 39.5342 36.9302C39.5342 32.9184 42.5933 29.8716 47.3545 29.8716C50.7569 29.8716 53.1944 31.0517 54.9473 34.1494L50.7833 36.8164C49.8692 35.1792 48.878 34.5312 47.3423 34.5312C45.7823 34.5312 44.7911 35.5225 44.7911 36.8164C44.7911 38.417 45.7823 39.063 48.0797 40.0664L49.4122 40.6372C53.9581 42.5791 56.5094 44.5737 56.5094 49.0405C56.5094 53.8403 52.7252 56.4789 47.6592 56.4789L47.6572 56.4809Z" fill="#CCC9DC"/>
</svg>
