<svg width="65" height="65" viewBox="0 0 65 65" fill="none" xmlns="http://www.w3.org/2000/svg">
<path fill-rule="evenodd" clip-rule="evenodd" d="M32.4849 6.10413C28.3544 6.1056 24.2818 7.07603 20.5945 8.93743C16.9071 10.7988 13.7079 13.4993 11.2538 16.8218C8.79979 20.1442 7.15938 23.9961 6.46445 28.0677C5.76952 32.1394 6.03945 36.3173 7.25255 40.2656C8.46564 44.214 10.5881 47.8227 13.4492 50.8018C16.3104 53.7809 19.8306 56.0472 23.7268 57.4186C27.623 58.7901 31.7866 59.2284 35.8829 58.6983C39.9793 58.1682 43.8942 56.6846 47.313 54.3666L24.3599 26.7294V45.7135C24.3599 46.5216 24.0389 47.2966 23.4675 47.868C22.8961 48.4394 22.1211 48.7604 21.313 48.7604C20.5049 48.7604 19.7299 48.4394 19.1585 47.868C18.5871 47.2966 18.2661 46.5216 18.2661 45.7135V18.2916C18.2654 17.6647 18.4581 17.0528 18.8179 16.5395C19.1777 16.0261 19.6871 15.6362 20.2766 15.4229C20.8662 15.2097 21.5071 15.1835 22.1121 15.3479C22.717 15.5123 23.2566 15.8593 23.6571 16.3416L54.0202 52.9041C54.5321 53.5191 54.7816 54.3108 54.7147 55.1082C54.6478 55.9055 54.2699 56.6446 53.6627 57.1657C47.5997 62.3677 39.8331 65.1543 31.8459 64.9935C23.8587 64.8327 16.2106 61.7357 10.3619 56.294C4.5131 50.8522 0.873525 43.4469 0.138077 35.492C-0.597371 27.5372 1.62284 19.5901 6.37477 13.1683C11.1267 6.74644 18.0774 2.29978 25.8997 0.677357C33.722 -0.945067 41.8679 0.370416 48.7818 4.37262C55.6958 8.37482 60.8935 14.7833 63.3825 22.3745C65.8714 29.9657 65.4772 38.2076 62.2752 45.5266C62.1146 45.8934 61.8834 46.225 61.5947 46.5024C61.3059 46.7798 60.9654 46.9976 60.5925 47.1434C60.2196 47.2892 59.8216 47.3601 59.4213 47.3521C59.021 47.3441 58.6262 47.2574 58.2594 47.0968C57.8926 46.9362 57.5611 46.705 57.2837 46.4162C57.0063 46.1275 56.7884 45.787 56.6426 45.4141C56.4968 45.0412 56.4259 44.6432 56.4339 44.2429C56.4419 43.8426 56.5287 43.4478 56.6893 43.081C58.1491 39.7485 58.899 36.1486 58.8911 32.5104C58.8911 25.507 56.1091 18.7905 51.1569 13.8383C46.2048 8.88621 39.4883 6.10413 32.4849 6.10413ZM42.6411 15.2448C43.4492 15.2448 44.2242 15.5658 44.7956 16.1372C45.367 16.7086 45.688 17.4835 45.688 18.2916V30.4791C45.688 31.2872 45.367 32.0622 44.7956 32.6336C44.2242 33.205 43.4492 33.526 42.6411 33.526C41.8331 33.526 41.0581 33.205 40.4867 32.6336C39.9153 32.0622 39.5943 31.2872 39.5943 30.4791V18.2916C39.5943 17.4835 39.9153 16.7086 40.4867 16.1372C41.0581 15.5658 41.8331 15.2448 42.6411 15.2448Z" fill="#CCC9DC"/>
</svg>
