<svg width="65" height="65" viewBox="0 0 65 65" fill="none" xmlns="http://www.w3.org/2000/svg">
<path d="M32.5 14.8959C14.2756 14.8959 0 22.6282 0 32.5C0 42.3719 14.2756 50.1042 32.5 50.1042C50.7244 50.1042 65 42.3719 65 32.5C65 22.6282 50.7244 14.8959 32.5 14.8959ZM29.1254 20.3125H32.6733L31.5467 25.7292H34.7154C36.725 25.7292 38.0737 26.0109 38.8429 26.7123C39.5931 27.4057 39.8206 28.5432 39.52 30.0923L38.1117 36.5625H34.5042L35.8015 30.5798C35.9567 29.7547 35.8963 29.1905 35.62 28.8871C35.3465 28.5865 34.7425 28.4375 33.8379 28.4375H30.9969L29.2825 36.5625H25.7292L29.1254 20.3125ZM13.5417 25.7292H20.7621C24.2044 25.7292 26.2898 28.0367 25.4746 31.479C24.5267 35.4792 21.9917 36.5625 17.3225 36.5625H15.0908L14.384 40.625H10.7954L13.5417 25.7292ZM41.9792 25.7292H49.1996C52.6419 25.7292 54.7273 28.0367 53.9121 31.479C52.9642 35.4792 50.4265 36.5625 45.76 36.5625H43.5283L42.8215 40.625H39.2329L41.9792 25.7292ZM16.6156 28.4375L15.5946 33.8542H17.9102C19.9144 33.8542 21.7777 33.6267 22.0892 30.6394C22.2056 29.4802 21.7235 28.4375 19.4079 28.4375H16.6156ZM45.0531 28.4375L44.0321 33.8542H46.3477C48.3519 33.8542 50.2152 33.6267 50.5267 30.6394C50.6431 29.4802 50.1637 28.4375 47.8454 28.4375H45.0531Z" fill="#CCC9DC"/>
</svg>
