<svg width="65" height="58" viewBox="0 0 65 58" fill="none" xmlns="http://www.w3.org/2000/svg">
<path d="M32.5 23.3007C35.614 23.3007 38.1535 25.8337 38.1535 29C38.1535 32.0155 35.614 34.5786 32.5 34.5786C29.386 34.5786 26.8465 32.0155 26.8465 29C26.8465 25.8337 29.386 23.3007 32.5 23.3007ZM18.5023 53.1239C20.407 54.2697 24.5791 52.5208 29.386 47.9975C27.814 46.2184 26.2721 44.2885 24.8209 42.2681C22.3849 42.0339 19.9629 41.6715 17.5651 41.1826C16.0233 47.6357 16.5977 52.0684 18.5023 53.1239ZM20.6488 35.815L19.7721 34.2771C19.4395 35.1516 19.107 36.0261 18.8953 36.8704C19.7116 37.0513 20.6186 37.2021 21.5558 37.3529L20.6488 35.815ZM40.4209 33.5232L42.8698 29L40.4209 24.4768C39.514 22.8786 38.5465 21.4613 37.6698 20.044C36.0372 19.9536 34.314 19.9536 32.5 19.9536C30.686 19.9536 28.9628 19.9536 27.3302 20.044C26.4535 21.4613 25.486 22.8786 24.5791 24.4768L22.1302 29L24.5791 33.5232C25.486 35.1214 26.4535 36.5387 27.3302 37.956C28.9628 38.0465 30.686 38.0465 32.5 38.0465C34.314 38.0465 36.0372 38.0465 37.6698 37.956C38.5465 36.5387 39.514 35.1214 40.4209 33.5232ZM32.5 13.2592C31.9256 13.9226 31.3209 14.6161 30.7163 15.4303H34.2837C33.6791 14.6161 33.0744 13.9226 32.5 13.2592ZM32.5 44.7408C33.0744 44.0774 33.6791 43.3839 34.2837 42.5697H30.7163C31.3209 43.3839 31.9256 44.0774 32.5 44.7408ZM46.4674 4.87614C44.593 3.73025 40.4209 5.47923 35.614 10.0025C37.186 11.7816 38.7279 13.7115 40.1791 15.7319C42.6581 15.9731 45.107 16.335 47.4349 16.8174C48.9767 10.3643 48.4023 5.93155 46.4674 4.87614ZM44.3512 22.185L45.2279 23.7229C45.5605 22.8484 45.893 21.9739 46.1047 21.1296C45.2884 20.9487 44.3814 20.7979 43.4442 20.6471L44.3512 22.185ZM48.7349 0.925853C53.1791 3.45886 53.6628 10.1231 51.7884 17.903C59.4674 20.1646 65 23.9038 65 29C65 34.0962 59.4674 37.8354 51.7884 40.097C53.6628 47.8769 53.1791 54.5411 48.7349 57.0741C44.3209 59.6072 38.3047 56.7123 32.5 51.194C26.6953 56.7123 20.6791 59.6072 16.2349 57.0741C11.8209 54.5411 11.3372 47.8769 13.2116 40.097C5.53256 37.8354 0 34.0962 0 29C0 23.9038 5.53256 20.1646 13.2116 17.903C11.3372 10.1231 11.8209 3.45886 16.2349 0.925853C20.6791 -1.60715 26.6953 1.28771 32.5 6.80604C38.3047 1.28771 44.3209 -1.60715 48.7349 0.925853ZM47.8581 29C48.886 31.2616 49.793 33.5232 50.5488 35.815C56.8977 33.9152 60.4651 31.2013 60.4651 29C60.4651 26.7987 56.8977 24.0848 50.5488 22.185C49.793 24.4768 48.886 26.7384 47.8581 29ZM17.1419 29C16.114 26.7384 15.207 24.4768 14.4512 22.185C8.10233 24.0848 4.53488 26.7987 4.53488 29C4.53488 31.2013 8.10233 33.9152 14.4512 35.815C15.207 33.5232 16.114 31.2616 17.1419 29ZM44.3512 35.815L43.4442 37.3529C44.3814 37.2021 45.2884 37.0513 46.1047 36.8704C45.893 36.0261 45.5605 35.1516 45.2279 34.2771L44.3512 35.815ZM35.614 47.9975C40.4209 52.5208 44.593 54.2697 46.4674 53.1239C48.4023 52.0684 48.9767 47.6357 47.4349 41.1826C45.107 41.665 42.6581 42.0269 40.1791 42.2681C38.7279 44.2885 37.186 46.2184 35.614 47.9975ZM20.6488 22.185L21.5558 20.6471C20.6186 20.7979 19.7116 20.9487 18.8953 21.1296C19.107 21.9739 19.4395 22.8484 19.7721 23.7229L20.6488 22.185ZM29.386 10.0025C24.5791 5.47923 20.407 3.73025 18.5023 4.87614C16.5977 5.93155 16.0233 10.3643 17.5651 16.8174C19.9629 16.3285 22.3849 15.9661 24.8209 15.7319C26.2721 13.7115 27.814 11.7816 29.386 10.0025Z" fill="#CCC9DC"/>
</svg>
