<svg width="65" height="65" viewBox="0 0 65 65" fill="none" xmlns="http://www.w3.org/2000/svg">
<g clip-path="url(#clip0_642_20)">
<mask id="mask0_642_20" style="mask-type:luminance" maskUnits="userSpaceOnUse" x="0" y="0" width="65" height="65">
<path d="M0 0H65V65H0V0Z" fill="white"/>
</mask>
<g mask="url(#mask0_642_20)">
<path d="M32.5 0C50.375 0 65 14.625 65 32.5C65 50.375 50.375 65 32.5 65C14.625 65 0 50.375 0 32.5C0 14.625 14.625 0 32.5 0ZM26 43.2656C26.4063 45.0928 26.4063 46.7178 26 48.1406L25.7969 48.75C25.7969 48.9531 25.5937 49.1562 25.5937 49.1562C25.1875 49.9687 24.7812 50.5781 24.1719 51.3906C22.3437 53.4219 19.7031 54.2344 18.4844 53.625C17.2656 53.0156 17.875 49.9687 20.1094 47.7344C22.5469 45.2969 25.7969 43.6719 25.7969 43.6719L26 43.2656ZM52.8125 13.8125C51.3906 8.125 41.8437 6.09375 32.7031 9.34375C27.4219 11.375 21.5312 14.4219 17.2656 18.2812C12.1875 22.9531 11.5781 27.0156 11.7812 28.6406C13 34.5312 21.125 38.5937 24.5781 41.4375C23.5625 41.8437 16.25 45.5 14.625 49.3594C12.7969 53.4219 14.8281 56.2656 16.25 56.4687C20.5156 57.6875 24.9844 55.4531 27.2187 52C29.4531 48.5469 29.25 44.2812 28.2344 42.0469C29.8145 41.5587 31.4942 41.4887 33.1094 41.8437C38.7969 42.4531 40.0156 46.1094 39.6094 47.5312C39.2031 48.9531 38.1875 49.7656 37.7812 50.1719C37.375 50.375 37.1719 50.5781 37.375 50.5781C37.375 50.7812 37.5781 50.7812 37.9844 50.7812C38.3906 50.7812 41.0312 49.5625 41.0312 46.7187C41.2344 43.2656 37.7812 39.4062 31.8906 39.4062C29.4531 39.4062 27.8281 39.6094 26.8125 40.0156C26.8125 39.8125 26.6094 39.8125 26.6094 39.8125C22.9531 35.9531 16.25 33.1094 16.4531 27.8281C16.4531 26 17.2656 20.9219 29.4531 14.8281C39.4062 9.75 47.5313 11.1719 48.9531 14.2187C50.9844 18.4844 44.6875 26.6094 34.3281 27.8281C30.2656 28.2344 28.2344 26.8125 27.8281 26.2031C27.2187 25.5937 27.2188 25.5937 27.0156 25.5937C26.6094 25.7969 26.8125 26.2031 27.0156 26.6094C27.4219 27.4219 28.6406 28.8437 30.875 29.6562C32.7031 30.2656 37.375 30.6719 43.0625 28.4375C49.3594 26 54.2344 19.2969 52.8125 13.6094V13.8125Z" fill="#CCC9DC"/>
</g>
</g>
<defs>
<clipPath id="clip0_642_20">
<rect width="65" height="65" fill="white"/>
</clipPath>
</defs>
</svg>
