<svg width="65" height="65" viewBox="0 0 65 65" fill="none" xmlns="http://www.w3.org/2000/svg">
<path d="M32.5 5.41663C17.5771 5.41663 5.41667 17.577 5.41667 32.5C5.41667 47.4229 17.5771 59.5833 32.5 59.5833C47.4229 59.5833 59.5833 47.4229 59.5833 32.5C59.5833 17.577 47.4229 5.41663 32.5 5.41663ZM8.15209 32.5C8.15209 28.9791 8.91042 25.6208 10.2646 22.5875L21.8833 54.4104C13.7583 50.4562 8.15209 42.1416 8.15209 32.5ZM32.5 56.8479C30.1167 56.8479 27.8146 56.4958 25.6208 55.8458L32.9333 34.6124L40.4083 55.1145C40.4625 55.2229 40.5167 55.3583 40.5708 55.4395C38.0521 56.3604 35.3437 56.8479 32.5 56.8479ZM35.8583 21.0708C37.3208 20.9895 38.6479 20.827 38.6479 20.827C39.9479 20.6645 39.8125 18.7416 38.4854 18.8229C38.4854 18.8229 34.5312 19.1208 31.9854 19.1208C29.6021 19.1208 25.5667 18.8229 25.5667 18.8229C24.2667 18.7687 24.1042 20.7729 25.4312 20.8541C25.4312 20.8541 26.6771 21.0166 27.9771 21.0979L31.7687 31.4979L26.4333 47.477L17.5771 21.0708C19.0396 21.0166 20.3667 20.8541 20.3667 20.8541C21.6667 20.6916 21.5312 18.7687 20.2042 18.85C20.2042 18.85 16.25 19.1479 13.7042 19.1479C13.2438 19.1479 12.7021 19.1479 12.1333 19.1208C16.5208 12.5125 23.9958 8.15204 32.5 8.15204C38.8375 8.15204 44.6062 10.5625 48.9396 14.5437C48.8312 14.5437 48.7229 14.5166 48.6146 14.5166C46.2312 14.5166 44.525 16.602 44.525 18.85C44.525 20.8541 45.6896 22.5604 46.9083 24.5645C47.8292 26.1895 48.9125 28.275 48.9125 31.2812C48.9125 33.3666 48.1 35.777 47.0708 39.1624L44.6333 47.2874L35.8583 21.0708ZM53.8687 20.827C56.9094 26.3947 57.6569 32.9292 55.9522 39.0397C54.2476 45.1502 50.2253 50.3541 44.7417 53.5437L52.1896 32.0395C53.5708 28.5729 54.0312 25.7833 54.0312 23.3187C54.0312 22.425 53.9771 21.5854 53.8687 20.827Z" fill="#CCC9DC"/>
</svg>
